# Blender v2.92.0 OBJ File: 'portal4.blend'
# www.blender.org
mtllib portal4.mtl
o Plane_Plane.002
v -1.000000 0.000000 -0.000000
v 1.000000 0.000000 -0.000000
v 0.000000 3.954954 -0.509873
v 1.000000 0.000000 -0.509873
v 0.000000 3.954954 0.000000
v -1.000000 2.971322 0.000000
v -0.392788 3.880079 0.000000
v -0.711901 3.666855 0.000000
v -0.925125 3.347742 0.000000
v -1.000000 0.000000 -0.509873
v 1.000000 2.971322 0.000000
v 0.392788 3.880079 0.000000
v 0.711901 3.666855 0.000000
v 0.925125 3.347742 0.000000
v -1.000000 2.971322 -0.509873
v -0.392788 3.880079 -0.509873
v -0.711901 3.666855 -0.509873
v -0.925125 3.347742 -0.509873
v 1.000000 2.971322 -0.509873
v 0.392788 3.880079 -0.509873
v 0.711901 3.666855 -0.509873
v 0.925125 3.347742 -0.509873
v 1.254084 3.484000 -0.509873
v 0.963675 3.918629 -0.509873
v 0.527840 4.209844 -0.509873
v 0.000000 4.310462 -0.509873
v 0.527840 4.209844 0.000000
v 0.000000 4.310462 0.000000
v 1.349220 3.005717 -0.509873
v -1.349220 3.005717 0.000000
v -1.349220 0.000000 -0.000000
v 1.349220 0.000000 -0.000000
v 1.349220 3.005717 0.000000
v 1.254084 3.484000 0.000000
v 0.963675 3.918629 0.000000
v 1.349220 0.000000 -0.509873
v -1.349220 3.005717 -0.509873
v -1.349220 0.000000 -0.509873
v -0.527840 4.209844 0.000000
v -0.963675 3.918629 0.000000
v -1.254084 3.484000 0.000000
v -0.527840 4.209844 -0.509873
v -0.963675 3.918629 -0.509873
v -1.254084 3.484000 -0.509873
vt 0.000000 0.000000
vt 0.000000 0.000000
vt 0.000000 0.000000
vt 0.000000 0.000000
vt 0.000000 0.000000
vt 0.000000 0.000000
vt 0.000000 0.000000
vt 0.000000 0.000000
vt 0.000000 0.000000
vt 0.000000 0.000000
vt 0.000000 0.000000
vt 0.000000 0.000000
vt 0.000000 0.000000
vt 0.000000 0.000000
vt 0.000000 0.000000
vt 0.000000 0.000000
vt 0.000000 0.000000
vt 0.000000 0.000000
vt 0.000000 0.000000
vt 0.000000 0.000000
vt 0.000000 0.000000
vt 0.000000 0.000000
vt 0.000000 0.000000
vt 0.000000 0.000000
vt 0.000000 0.000000
vt 0.000000 0.000000
vt 0.000000 0.000000
vt 0.000000 0.000000
vt 0.000000 0.000000
vt 0.000000 0.000000
vt 0.000000 0.000000
vt 0.000000 0.000000
vt 0.000000 0.000000
vt 0.000000 0.000000
vt 0.000000 0.000000
vt 0.000000 0.000000
vt 0.000000 0.000000
vt 0.000000 0.000000
vt 0.000000 0.000000
vt 0.000000 0.000000
vt 0.000000 0.000000
vt 0.000000 0.000000
vt 0.000000 0.000000
vt 0.000000 0.000000
vn 0.5556 -0.8315 0.0000
vn -1.0000 0.0000 0.0000
vn -0.1873 -0.9823 0.0000
vn -0.9808 -0.1951 0.0000
vn 0.8315 -0.5556 0.0000
vn -0.8315 -0.5556 0.0000
vn 0.9808 -0.1951 0.0000
vn 1.0000 -0.0000 0.0000
vn 0.1873 -0.9823 0.0000
vn -0.5556 -0.8315 0.0000
vn -0.5556 0.8315 0.0000
vn 0.1873 0.9823 0.0000
vn 0.9808 0.1951 0.0000
vn -0.8315 0.5556 0.0000
vn 0.8315 0.5556 0.0000
vn -0.9808 0.1951 0.0000
vn -0.1873 0.9823 0.0000
vn 0.5556 0.8315 0.0000
vn -0.0000 0.0000 -1.0000
vn 0.0000 -0.0000 1.0000
vn 0.0000 -1.0000 0.0000
usemtl Material.002
s off
f 17/1/1 7/2/1 8/3/1
f 11/4/2 4/5/2 2/6/2
f 3/7/3 12/8/3 5/9/3
f 22/10/4 11/4/4 14/11/4
f 18/12/5 8/3/5 9/13/5
f 21/14/6 14/11/6 13/15/6
f 15/16/7 9/13/7 6/17/7
f 10/18/8 6/17/8 1/19/8
f 16/20/9 5/9/9 7/2/9
f 20/21/10 13/15/10 12/8/10
f 39/22/11 43/23/11 40/24/11
f 33/25/8 36/26/8 29/27/8
f 27/28/12 26/29/12 28/30/12
f 33/25/13 23/31/13 34/32/13
f 40/24/14 44/33/14 41/34/14
f 34/32/15 24/35/15 35/36/15
f 41/34/16 37/37/16 30/38/16
f 30/38/2 38/39/2 31/40/2
f 28/30/17 42/41/17 39/22/17
f 35/36/18 25/42/18 27/28/18
f 15/16/19 38/39/19 37/37/19
f 22/10/19 29/27/19 19/43/19
f 17/1/19 44/33/19 43/23/19
f 7/2/20 28/30/20 39/22/20
f 6/17/20 31/40/20 1/19/20
f 18/12/19 37/37/19 44/33/19
f 7/2/20 40/24/20 8/3/20
f 11/4/20 32/44/20 33/25/20
f 8/3/20 41/34/20 9/13/20
f 14/11/20 33/25/20 34/32/20
f 4/5/21 32/44/21 2/6/21
f 9/13/20 30/38/20 6/17/20
f 13/15/20 34/32/20 35/36/20
f 21/14/19 23/31/19 22/10/19
f 20/21/19 24/35/19 21/14/19
f 1/19/21 38/39/21 10/18/21
f 12/8/20 35/36/20 27/28/20
f 20/21/19 26/29/19 25/42/19
f 16/20/19 26/29/19 3/7/19
f 19/43/19 36/26/19 4/5/19
f 12/8/20 28/30/20 5/9/20
f 16/20/19 43/23/19 42/41/19
f 17/1/1 16/20/1 7/2/1
f 11/4/2 19/43/2 4/5/2
f 3/7/3 20/21/3 12/8/3
f 22/10/4 19/43/4 11/4/4
f 18/12/5 17/1/5 8/3/5
f 21/14/6 22/10/6 14/11/6
f 15/16/7 18/12/7 9/13/7
f 10/18/8 15/16/8 6/17/8
f 16/20/9 3/7/9 5/9/9
f 20/21/10 21/14/10 13/15/10
f 39/22/11 42/41/11 43/23/11
f 33/25/8 32/44/8 36/26/8
f 27/28/12 25/42/12 26/29/12
f 33/25/13 29/27/13 23/31/13
f 40/24/14 43/23/14 44/33/14
f 34/32/15 23/31/15 24/35/15
f 41/34/16 44/33/16 37/37/16
f 30/38/2 37/37/2 38/39/2
f 28/30/17 26/29/17 42/41/17
f 35/36/18 24/35/18 25/42/18
f 15/16/19 10/18/19 38/39/19
f 22/10/19 23/31/19 29/27/19
f 17/1/19 18/12/19 44/33/19
f 7/2/20 5/9/20 28/30/20
f 6/17/20 30/38/20 31/40/20
f 18/12/19 15/16/19 37/37/19
f 7/2/20 39/22/20 40/24/20
f 11/4/20 2/6/20 32/44/20
f 8/3/20 40/24/20 41/34/20
f 14/11/20 11/4/20 33/25/20
f 4/5/21 36/26/21 32/44/21
f 9/13/20 41/34/20 30/38/20
f 13/15/20 14/11/20 34/32/20
f 21/14/19 24/35/19 23/31/19
f 20/21/19 25/42/19 24/35/19
f 1/19/21 31/40/21 38/39/21
f 12/8/20 13/15/20 35/36/20
f 20/21/19 3/7/19 26/29/19
f 16/20/19 42/41/19 26/29/19
f 19/43/19 29/27/19 36/26/19
f 12/8/20 27/28/20 28/30/20
f 16/20/19 17/1/19 43/23/19
o Plane.001_Plane.003
v 1.357598 3.526881 -0.626157
v 1.056894 3.980790 -0.626157
v 0.548728 4.319923 -0.626157
v 0.000000 4.422506 -0.626157
v 0.548728 4.319923 0.116284
v 0.000000 4.422506 0.116284
v 1.459089 3.027686 -0.626158
v -1.459089 3.027686 0.116284
v 1.459089 3.027686 0.116284
v 1.357598 3.526881 0.116284
v 1.056894 3.980790 0.116284
v -1.459089 3.027686 -0.626158
v -0.548728 4.319923 0.116284
v -1.056894 3.980790 0.116284
v -1.357598 3.526881 0.116284
v -0.548728 4.319923 -0.626157
v -1.056894 3.980790 -0.626157
v -1.357598 3.526881 -0.626157
v 1.461264 1.001906 0.116284
v 1.461264 2.003811 0.116284
v 1.461264 1.001906 -0.626158
v 1.461264 2.003811 -0.626157
v -1.461264 2.003811 0.116284
v -1.461264 1.001906 0.116284
v -1.461264 2.003811 -0.626158
v -1.461264 1.001906 -0.626158
v 0.843526 3.313863 -0.626157
v 0.592997 3.673469 -0.626157
v 0.446472 3.772941 -0.626157
v 0.000000 3.866047 -0.626157
v 0.446472 3.772941 0.116284
v 0.000000 3.866047 0.116284
v 0.913786 2.916820 -0.626158
v 0.913786 2.916820 0.116284
v 0.843526 3.313863 0.116284
v 0.592997 3.673469 0.116284
v -0.446472 3.772941 0.116284
v -0.592997 3.673469 0.116284
v -0.843526 3.313863 0.116284
v -0.913786 2.916820 0.116284
v -0.446472 3.772941 -0.626157
v -0.592997 3.673469 -0.626157
v -0.843526 3.313863 -0.626157
v -0.913786 2.916820 -0.626158
v 0.904805 1.001906 0.116284
v 0.904805 2.003811 0.116284
v 0.904805 1.001906 -0.626158
v 0.904805 2.003811 -0.626157
v -0.904805 2.003811 0.116284
v -0.904805 1.001906 0.116284
v -0.904805 2.003811 -0.626158
v -0.904805 1.001906 -0.626158
v -1.994941 0.000000 0.764648
v 1.994941 0.000000 0.764648
v -1.994941 0.000000 -1.235352
v 1.994941 0.000000 -1.235352
vt 0.000000 0.000000
vt 0.000000 0.000000
vt 0.000000 0.000000
vt 0.000000 0.000000
vt 0.000000 0.000000
vt 0.000000 0.000000
vt 0.000000 0.000000
vt 0.000000 0.000000
vt 0.000000 0.000000
vt 0.000000 0.000000
vt 0.000000 0.000000
vt 0.000000 0.000000
vt 0.000000 0.000000
vt 0.000000 0.000000
vt 0.000000 0.000000
vt 0.000000 0.000000
vt 0.000000 0.000000
vt 0.000000 0.000000
vt 0.000000 0.000000
vt 0.000000 0.000000
vt 0.000000 0.000000
vt 0.000000 0.000000
vt 0.000000 0.000000
vt 0.000000 0.000000
vt 0.000000 0.000000
vt 0.000000 0.000000
vt 0.000000 0.000000
vt 0.000000 0.000000
vt 0.000000 0.000000
vt 0.000000 0.000000
vt 0.000000 0.000000
vt 0.000000 0.000000
vt 0.000000 0.000000
vt 0.000000 0.000000
vt 0.000000 0.000000
vt 0.000000 0.000000
vt 0.000000 0.000000
vt 0.000000 0.000000
vt 0.000000 0.000000
vt 0.000000 0.000000
vt 0.000000 0.000000
vt 0.000000 0.000000
vt 0.000000 0.000000
vt 0.000000 0.000000
vt 0.000000 0.000000
vt 0.000000 0.000000
vt 0.000000 0.000000
vt 0.000000 0.000000
vt 0.000000 0.000000
vt 0.000000 0.000000
vt 0.000000 0.000000
vt 0.000000 0.000000
vt 1.000000 0.000000
vt 0.000000 1.000000
vt 0.000000 0.000000
vt 1.000000 1.000000
vn -0.1838 -0.9830 0.0000
vn -0.9800 -0.1992 0.0000
vn 0.8337 -0.5523 0.0000
vn -0.8337 -0.5523 0.0000
vn 0.9800 -0.1992 0.0000
vn 0.1838 -0.9830 0.0000
vn -1.0000 0.0000 0.0000
vn 1.0000 -0.0000 0.0000
vn 0.2041 0.9789 0.0000
vn 0.9847 0.1743 0.0000
vn -0.8205 0.5716 0.0000
vn 0.8205 0.5716 0.0000
vn -0.9847 0.1743 0.0000
vn -0.2041 0.9789 0.0000
vn -0.1992 0.9800 0.0000
vn 0.0000 1.0000 0.0000
vn 0.0000 0.0000 -1.0000
vn 0.1992 0.9800 0.0000
vn -0.5523 -0.8337 0.0000
vn 0.0000 -1.0000 0.0000
vn 0.9830 0.1838 0.0000
vn 0.0000 -0.0000 1.0000
vn -0.9830 0.1838 0.0000
vn 0.5523 -0.8337 0.0000
usemtl Material.001
s off
f 48/45/22 49/46/22 50/47/22
f 45/48/23 53/49/23 54/50/23
f 62/51/24 58/52/24 59/53/24
f 46/54/25 54/50/25 55/55/25
f 56/56/26 59/53/26 52/57/26
f 60/58/27 50/47/27 57/59/27
f 66/60/28 63/61/28 64/62/28
f 70/63/29 67/64/29 68/65/29
f 75/66/30 74/67/30 76/68/30
f 78/69/31 71/70/31 79/71/31
f 82/72/32 87/73/32 83/74/32
f 79/71/33 72/75/33 80/76/33
f 83/74/34 88/77/34 84/78/34
f 76/68/35 85/79/35 81/80/35
f 89/81/29 92/82/29 90/83/29
f 93/84/28 96/85/28 94/86/28
f 51/87/36 78/69/36 53/49/36
f 68/65/37 96/85/37 70/63/37
f 55/55/38 79/71/38 80/76/38
f 52/57/39 88/77/39 56/56/39
f 61/88/40 82/72/40 58/52/40
f 69/89/41 93/84/41 67/64/41
f 57/59/38 76/68/38 81/80/38
f 63/61/38 90/83/38 64/62/38
f 57/59/42 85/79/42 60/58/42
f 58/52/38 83/74/38 59/53/38
f 66/60/43 91/90/43 65/91/43
f 46/54/43 71/70/43 45/48/43
f 52/57/38 83/74/38 84/78/38
f 64/62/41 92/82/41 66/60/41
f 47/92/43 74/67/43 73/93/43
f 47/92/44 75/66/44 49/46/44
f 60/58/43 74/67/43 48/45/43
f 65/91/37 89/81/37 63/61/37
f 49/46/38 76/68/38 50/47/38
f 61/88/43 87/73/43 86/94/43
f 67/64/38 94/86/38 68/65/38
f 51/87/43 71/70/43 77/95/43
f 56/56/43 87/73/43 62/51/43
f 70/63/43 95/96/43 69/89/43
f 53/49/38 79/71/38 54/50/38
f 55/55/45 72/75/45 46/54/45
f 98/97/37 99/98/37 97/99/37
f 48/45/22 47/92/22 49/46/22
f 45/48/23 51/87/23 53/49/23
f 62/51/24 61/88/24 58/52/24
f 46/54/25 45/48/25 54/50/25
f 56/56/26 62/51/26 59/53/26
f 60/58/27 48/45/27 50/47/27
f 66/60/28 65/91/28 63/61/28
f 70/63/29 69/89/29 67/64/29
f 75/66/30 73/93/30 74/67/30
f 78/69/31 77/95/31 71/70/31
f 82/72/32 86/94/32 87/73/32
f 79/71/33 71/70/33 72/75/33
f 83/74/34 87/73/34 88/77/34
f 76/68/35 74/67/35 85/79/35
f 89/81/29 91/90/29 92/82/29
f 93/84/28 95/96/28 96/85/28
f 51/87/36 77/95/36 78/69/36
f 68/65/37 94/86/37 96/85/37
f 55/55/38 54/50/38 79/71/38
f 52/57/39 84/78/39 88/77/39
f 61/88/40 86/94/40 82/72/40
f 69/89/41 95/96/41 93/84/41
f 57/59/38 50/47/38 76/68/38
f 63/61/38 89/81/38 90/83/38
f 57/59/42 81/80/42 85/79/42
f 58/52/38 82/72/38 83/74/38
f 66/60/43 92/82/43 91/90/43
f 46/54/43 72/75/43 71/70/43
f 52/57/38 59/53/38 83/74/38
f 64/62/41 90/83/41 92/82/41
f 47/92/43 48/45/43 74/67/43
f 47/92/44 73/93/44 75/66/44
f 60/58/43 85/79/43 74/67/43
f 65/91/37 91/90/37 89/81/37
f 49/46/38 75/66/38 76/68/38
f 61/88/43 62/51/43 87/73/43
f 67/64/38 93/84/38 94/86/38
f 51/87/43 45/48/43 71/70/43
f 56/56/43 88/77/43 87/73/43
f 70/63/43 96/85/43 95/96/43
f 53/49/38 78/69/38 79/71/38
f 55/55/45 80/76/45 72/75/45
f 98/97/37 100/100/37 99/98/37
