# Blender v2.92.0 OBJ File: 'keyhole.blend'
# www.blender.org
mtllib keyhole.mtl
o keyhole_Cube.001
v -1.000000 1.932172 -1.000000
v -1.000000 3.932172 -1.000000
v 1.000000 1.932172 -1.000000
v 1.000000 3.932172 -1.000000
v 0.132235 3.564513 -1.000000
v -0.132235 3.564513 -1.000000
v -0.188822 3.422277 -1.000000
v -0.143356 3.279642 -1.000000
v -0.094160 3.259045 -1.000000
v -0.091669 2.254470 -1.000000
v -0.002281 2.153245 -1.000000
v 0.188822 3.422277 -1.000000
v 0.143356 3.279642 -1.000000
v 0.094160 3.259045 -1.000000
v 0.091669 2.254470 -1.000000
v 0.002281 2.153245 -1.000000
v 1.000000 3.932172 -1.000000
v 1.000000 3.932172 0.000000
v 0.132235 3.564513 -1.000000
v -0.132235 3.564513 -1.000000
v -0.188822 3.422277 -1.000000
v -0.143356 3.279642 -1.000000
v -0.094160 3.259045 -1.000000
v -0.091669 2.254470 -1.000000
v -0.002281 2.153245 -1.000000
v 0.188822 3.422277 -1.000000
v 0.143356 3.279642 -1.000000
v 0.094160 3.259045 -1.000000
v 0.091669 2.254470 -1.000000
v 0.002281 2.153245 -1.000000
v 0.132235 3.564513 -0.063314
v -0.132235 3.564513 -0.063314
v -0.188822 3.422277 -0.063314
v -0.143356 3.279642 -0.063314
v -0.094160 3.259045 -0.063314
v -0.091669 2.254470 -0.063314
v 0.188822 3.422277 -0.063314
v 0.143356 3.279642 -0.063314
v 0.094160 3.259045 -0.063314
v 0.091669 2.254470 -0.063314
v 1.000000 3.932172 0.000000
v 0.593115 1.932172 0.619727
v -1.000000 3.932172 -1.000000
v 1.000000 1.932172 0.619727
v -0.593115 1.932172 0.619727
v -1.000000 1.932172 0.619727
v 1.000000 3.932172 0.619727
v 0.132235 3.564513 0.447290
v 0.188822 3.422277 0.447290
v -0.132235 3.564513 0.447290
v -0.188822 3.422277 0.447290
v -0.143356 3.279642 0.447290
v -0.094160 3.259045 0.447290
v -0.091669 2.254470 0.447290
v -0.002281 2.153245 0.447290
v 0.143356 3.279642 0.447290
v 0.094160 3.259045 0.447290
v 0.091669 2.254470 0.447290
v 0.002281 2.153245 0.447290
v 0.593115 3.932172 0.619727
v 1.000000 1.932172 -1.000000
v 1.000000 3.932172 -1.000000
v -1.000000 1.932172 -1.000000
v -1.000000 3.932172 -1.000000
v -1.000000 1.932172 -1.000000
v -1.000000 3.932172 -1.000000
v -1.000000 1.932172 -1.000000
v -1.000000 3.932172 -1.000000
v -1.000000 1.932172 -1.000000
v -1.000000 3.932172 -1.000000
v 1.000000 1.932172 -1.000000
v 1.000000 3.932172 -1.000000
v -1.000996 1.932759 -1.001086
v -1.000996 3.934931 -1.001086
v -1.000996 1.932759 0.623883
v -1.000996 3.934931 0.623883
v 0.000000 3.622584 -1.000000
v 0.000000 2.155749 -1.000000
v 0.000000 1.932172 -1.000000
v 0.000000 3.622584 -1.000000
v 0.000000 2.155749 -1.000000
v 0.000000 1.932172 0.619727
v 0.000000 3.932172 0.619727
v 0.000000 3.622584 0.447290
v 0.000000 2.155749 0.447290
v 0.000000 3.932172 -1.000000
v 1.000000 1.932172 -1.000000
v 1.000000 3.932172 -1.000000
v 1.000000 1.932172 -1.000000
v 1.000000 3.932172 -1.000000
v 1.000996 1.932759 -1.001086
v 1.000996 3.934931 -1.001086
v 1.000996 1.932759 0.623883
v 1.000996 3.934931 0.623883
v -1.000000 1.921829 -1.000000
v 1.000000 1.921829 -1.000000
v -1.000000 3.921829 -1.000000
v 1.000000 3.921829 -1.000000
v -0.000716 3.627818 -1.000000
v -0.137918 3.567855 -1.000000
v -0.198763 3.419611 -1.000000
v -0.149996 3.268010 -1.000000
v -0.098966 3.245912 -1.000000
v -0.106831 2.241308 -1.000000
v -0.003968 2.133015 -1.000000
v 0.103931 2.243105 -1.000000
v 0.104888 3.242150 -1.000000
v 0.157292 3.271043 -1.000000
v 0.209182 3.427829 -1.000000
v 0.143485 3.570452 -1.000000
v -1.000000 3.932621 -1.000000
v 1.000000 3.932621 -1.000000
v 0.000000 3.932172 -0.190136
v 1.000000 3.932172 0.626975
v -1.000000 3.932172 0.626975
vt 0.499642 0.852994
vt 0.571743 0.824311
vt 1.000000 1.000000
vt 0.543434 0.357081
vt 0.561263 0.351397
vt 0.543434 0.357081
vt 0.175861 0.625000
vt 0.125000 0.625000
vt 0.125000 0.500000
vt 0.543434 0.357081
vt 0.540859 0.363230
vt 0.540859 0.363230
vt 0.540859 0.363230
vt 0.543434 0.357081
vt 0.543434 0.357081
vt 0.402947 0.375000
vt 0.402634 0.374715
vt 0.402947 0.375000
vt 0.540859 0.363230
vt 0.540859 0.363230
vt 0.561263 0.351397
vt 0.579043 0.358471
vt 0.579043 0.358471
vt 0.561263 0.351397
vt 0.540859 0.363230
vt 0.543434 0.357081
vt 0.543434 0.357081
vt 0.415287 0.363541
vt 0.415287 0.363541
vt 0.415287 0.363541
vt 0.540859 0.363230
vt 0.561263 0.351397
vt 0.579043 0.358471
vt 0.402634 0.374715
vt 0.402634 0.374715
vt 0.402634 0.374715
vt 0.561263 0.351397
vt 0.579043 0.358471
vt 0.579043 0.358471
vt 0.561263 0.351397
vt 0.579043 0.358471
vt 0.561263 0.351397
vt 0.561263 0.351397
vt 0.625000 0.250000
vt 0.375000 0.250000
vt 0.375000 0.250000
vt 0.415287 0.363541
vt 0.415287 0.363541
vt 0.543434 0.357081
vt 0.625000 0.250000
vt 0.375000 0.250000
vt 0.625000 0.250000
vt 0.375000 0.250000
vt 0.000000 1.000000
vt 1.000000 0.188397
vt 0.000000 0.188397
vt 0.625000 0.250000
vt 0.375000 0.250000
vt 0.625000 0.250000
vt 0.415287 0.363541
vt 0.540859 0.363230
vt 0.402947 0.375000
vt 0.415287 0.363541
vt 0.375000 0.250000
vt 0.625000 0.250000
vt 0.375000 0.250000
vt 0.625000 0.250000
vt 1.000000 0.188397
vt 0.000000 1.000000
vt 0.000000 0.188397
vt 0.402634 0.374715
vt 0.586302 0.375000
vt 0.579043 0.358471
vt 0.415287 0.363541
vt 0.125000 0.500000
vt 0.125000 0.625000
vt 0.175861 0.625000
vt 1.000000 0.186513
vt 0.000000 1.000000
vt 0.000000 0.186513
vt 0.579043 0.358471
vt 0.586302 0.375000
vt 0.586302 0.375000
vt 0.000000 0.000000
vt 0.498016 0.105593
vt 0.446584 0.159739
vt 0.000000 1.000000
vt 0.000000 1.000000
vt 0.400619 0.748891
vt 0.431041 0.823013
vt 0.604591 0.753000
vt 0.250000 0.500000
vt 0.250000 0.625000
vt 0.625000 0.250000
vt 1.000000 1.000000
vt 0.375000 0.250000
vt 0.402634 0.374715
vt 1.000000 1.000000
vt 1.000000 1.000000
vt 1.000000 0.000000
vt 0.578646 0.674607
vt 0.552444 0.660160
vt 0.551966 0.160638
vt 0.425002 0.673090
vt 0.450517 0.662041
vt 1.000000 1.000000
vn 0.0000 0.0000 1.0000
vn 0.0000 -1.0000 0.0000
vn 0.3862 0.9224 0.0000
vn -0.3862 0.9224 0.0000
vn -0.9292 -0.3697 0.0000
vn -0.9528 0.3037 0.0000
vn 0.9292 -0.3697 0.0000
vn 1.0000 0.0025 0.0000
vn 0.9528 0.3037 0.0000
vn -1.0000 0.0000 0.0000
vn -1.0000 0.0025 0.0000
vn -0.7328 0.6804 0.0000
vn 1.0000 0.0000 0.0000
vn 0.4021 -0.9156 0.0000
vn 0.0000 1.0000 0.0000
vn -0.4021 -0.9156 0.0000
vn 0.0000 0.0000 -1.0000
vn 0.7328 0.6804 0.0000
usemtl steel
s off
f 99/1/1 110/2/1 98/3/1
f 8/4/1 21/5/1 22/6/1
f 45/7/2 46/8/2 1/9/2
f 34/10/3 53/11/3 35/12/3
f 14/13/1 27/14/1 13/15/1
f 78/16/1 25/17/1 81/18/1
f 9/19/1 22/6/1 23/20/1
f 12/21/1 19/22/1 5/23/1
f 13/15/1 26/24/1 12/21/1
f 39/25/4 56/26/4 38/27/4
f 10/28/1 23/20/1 24/29/1
f 15/30/1 28/31/1 14/13/1
f 7/32/1 20/33/1 21/5/1
f 78/16/1 30/34/1 16/35/1
f 11/36/1 24/29/1 25/17/1
f 37/37/5 48/38/5 31/39/5
f 38/27/6 49/40/6 37/37/6
f 32/41/7 51/42/7 33/43/7
f 4/44/1 61/45/1 3/46/1
f 35/12/8 54/47/8 36/48/8
f 33/43/9 52/49/9 34/10/9
f 62/50/1 71/51/1 61/45/1
f 72/52/1 87/53/1 71/51/1
f 92/54/10 93/55/10 94/56/10
f 2/57/1 63/58/1 64/59/1
f 40/60/11 57/61/11 39/25/11
f 85/62/12 58/63/12 40/60/12
f 64/59/1 65/64/1 66/65/1
f 66/65/1 67/66/1 68/67/1
f 75/68/13 74/69/13 76/70/13
f 54/47/1 55/71/1 85/62/1
f 84/72/14 50/73/14 32/41/14
f 16/35/1 29/74/1 15/30/1
f 3/75/2 44/76/2 42/77/2
f 114/78/15 43/79/15 115/80/15
f 6/81/1 80/82/1 20/33/1
f 31/39/16 84/72/16 80/82/16
f 5/23/1 80/82/1 77/83/1
f 95/84/1 105/85/1 104/86/1
f 98/3/1 111/87/1 97/88/1
f 97/88/1 101/89/1 100/90/1
f 97/88/1 100/90/1 99/1/1
f 110/2/1 109/91/1 98/3/1
f 98/3/1 97/88/1 99/1/1
f 8/4/1 7/32/1 21/5/1
f 1/9/2 79/92/2 45/7/2
f 79/92/2 82/93/2 45/7/2
f 35/12/3 23/20/3 22/6/3
f 34/10/3 52/49/3 53/11/3
f 35/12/3 22/6/3 34/10/3
f 14/13/1 28/31/1 27/14/1
f 78/16/1 11/36/1 25/17/1
f 9/19/1 8/4/1 22/6/1
f 12/21/1 26/24/1 19/22/1
f 13/15/1 27/14/1 26/24/1
f 27/14/4 28/31/4 39/25/4
f 39/25/4 57/61/4 56/26/4
f 38/27/4 27/14/4 39/25/4
f 10/28/1 9/19/1 23/20/1
f 15/30/1 29/74/1 28/31/1
f 7/32/1 6/81/1 20/33/1
f 78/16/1 81/18/1 30/34/1
f 11/36/1 10/28/1 24/29/1
f 19/22/5 26/24/5 37/37/5
f 37/37/5 49/40/5 48/38/5
f 31/39/5 19/22/5 37/37/5
f 26/24/6 27/14/6 38/27/6
f 38/27/6 56/26/6 49/40/6
f 37/37/6 26/24/6 38/27/6
f 33/43/7 21/5/7 20/33/7
f 32/41/7 50/73/7 51/42/7
f 33/43/7 20/33/7 32/41/7
f 4/44/1 62/50/1 61/45/1
f 36/48/8 24/29/8 23/20/8
f 35/12/8 53/11/8 54/47/8
f 36/48/8 23/20/8 35/12/8
f 34/10/9 22/6/9 21/5/9
f 33/43/9 51/42/9 52/49/9
f 34/10/9 21/5/9 33/43/9
f 62/50/1 72/52/1 71/51/1
f 72/52/1 88/94/1 87/53/1
f 92/54/10 91/95/10 93/55/10
f 2/57/1 1/96/1 63/58/1
f 28/31/11 29/74/11 40/60/11
f 40/60/11 58/63/11 57/61/11
f 39/25/11 28/31/11 40/60/11
f 29/74/17 30/34/17 81/18/17
f 85/62/1 59/97/1 58/63/1
f 29/74/12 81/18/12 40/60/12
f 81/18/12 85/62/12 40/60/12
f 64/59/1 63/58/1 65/64/1
f 66/65/1 65/64/1 67/66/1
f 75/68/13 73/98/13 74/69/13
f 81/18/17 25/17/17 24/29/17
f 24/29/18 36/48/18 81/18/18
f 36/48/18 54/47/18 85/62/18
f 85/62/18 81/18/18 36/48/18
f 32/41/14 20/33/14 80/82/14
f 80/82/14 84/72/14 32/41/14
f 16/35/1 30/34/1 29/74/1
f 82/93/2 79/92/2 42/77/2
f 79/92/2 3/75/2 42/77/2
f 114/78/15 17/99/15 43/79/15
f 6/81/1 77/83/1 80/82/1
f 80/82/16 19/22/16 31/39/16
f 31/39/16 48/38/16 84/72/16
f 5/23/1 19/22/1 80/82/1
f 96/100/1 98/3/1 108/101/1
f 98/3/1 109/91/1 108/101/1
f 108/101/1 107/102/1 106/103/1
f 101/89/1 97/88/1 102/104/1
f 97/88/1 95/84/1 102/104/1
f 104/86/1 103/105/1 102/104/1
f 96/100/1 108/101/1 106/103/1
f 96/100/1 106/103/1 105/85/1
f 104/86/1 102/104/1 95/84/1
f 95/84/1 96/100/1 105/85/1
f 98/3/1 112/106/1 111/87/1
l 18 41
l 83 113
l 47 41
l 47 60
l 70 68
l 67 69
l 18 4
l 113 86
l 78 79
l 77 86
l 90 88
l 87 89
l 60 83
l 4 86
