# Blender v2.92.0 OBJ File: 'pressurePlate.blend'
# www.blender.org
mtllib pressurePlate.mtl
o Plane
v -1.000000 0.000000 1.000000
v 1.000000 0.000000 1.000000
v -1.000000 0.000000 -1.000000
v 1.000000 0.000000 -1.000000
v -0.769743 0.034291 0.769743
v 0.769743 0.034291 0.769743
v -0.769743 0.034291 -0.769743
v 0.769743 0.034291 -0.769743
v -1.000000 0.034291 -1.000000
v -1.000000 0.034291 1.000000
v 1.000000 0.034291 1.000000
v 1.000000 0.034291 -1.000000
v -0.769743 0.034291 -0.769743
v -0.769743 0.034291 0.769743
v 0.769743 0.034291 0.769743
v 0.769743 0.034291 -0.769743
v -0.769743 0.034291 -0.769743
v -0.769743 0.034291 0.769743
v 0.769743 0.034291 0.769743
v 0.769743 0.034291 -0.769743
v -0.769743 0.067572 -0.769743
v -0.769743 0.067572 0.769743
v 0.769743 0.067572 0.769743
v 0.769743 0.067572 -0.769743
v -0.769743 0.137478 -0.769743
v -0.769743 0.137478 0.769743
v 0.769743 0.137478 0.769743
v 0.769743 0.137478 -0.769743
vt 0.000000 1.000000
vt 1.000000 0.000000
vt 0.000000 0.000000
vt 0.115128 0.115128
vt 0.884872 0.115128
vt 0.115128 0.115128
vt 1.000000 1.000000
vt 1.000000 0.000000
vt 0.000000 1.000000
vt 1.000000 1.000000
vt 0.000000 0.000000
vt 0.115128 0.884872
vt 0.115128 0.115128
vt 0.884872 0.115128
vt 0.884872 0.884872
vt 0.884872 0.115128
vt 0.884872 0.884872
vt 0.115128 0.884872
vt 0.884872 0.884872
vt 0.884872 0.115128
vt 0.115128 0.884872
vt 0.884872 0.884872
vt 0.884872 0.115128
vt 0.115128 0.884872
vt 0.115128 0.115128
vt 0.115128 0.884872
vt 0.115128 0.115128
vt 0.884872 0.884872
vn 0.0000 -1.0000 0.0000
vn 0.0000 0.0000 1.0000
vn 1.0000 0.0000 0.0000
vn -1.0000 0.0000 0.0000
vn 0.0000 0.0000 -1.0000
vn 0.0000 1.0000 0.0000
usemtl Material.001
s off
f 3/1/1 2/2/1 1/3/1
f 5/4/2 19/5/2 18/6/2
f 4/7/3 11/8/3 2/2/3
f 1/3/4 9/9/4 3/1/4
f 3/1/5 12/10/5 4/7/5
f 2/2/2 10/11/2 1/3/2
f 13/12/6 10/11/6 14/13/6
f 14/13/6 11/8/6 15/14/6
f 15/14/6 12/10/6 16/15/6
f 16/15/6 9/9/6 13/12/6
f 5/4/2 13/12/2 14/13/2
f 6/16/2 14/13/2 15/14/2
f 8/17/2 15/14/2 16/15/2
f 7/18/2 16/15/2 13/12/2
f 20/19/3 23/20/3 19/5/3
f 6/16/2 20/19/2 19/5/2
f 7/18/2 18/6/2 17/21/2
f 8/17/2 17/21/2 20/19/2
f 24/22/3 27/23/3 23/20/3
f 18/6/4 21/24/4 17/21/4
f 17/21/5 24/22/5 20/19/5
f 19/5/2 22/25/2 18/6/2
f 27/23/6 25/26/6 26/27/6
f 22/25/4 25/26/4 21/24/4
f 21/24/5 28/28/5 24/22/5
f 23/20/2 26/27/2 22/25/2
f 3/1/1 4/7/1 2/2/1
f 5/4/2 6/16/2 19/5/2
f 4/7/3 12/10/3 11/8/3
f 1/3/4 10/11/4 9/9/4
f 3/1/5 9/9/5 12/10/5
f 2/2/2 11/8/2 10/11/2
f 13/12/6 9/9/6 10/11/6
f 14/13/6 10/11/6 11/8/6
f 15/14/6 11/8/6 12/10/6
f 16/15/6 12/10/6 9/9/6
f 5/4/2 7/18/2 13/12/2
f 6/16/2 5/4/2 14/13/2
f 8/17/2 6/16/2 15/14/2
f 7/18/2 8/17/2 16/15/2
f 20/19/3 24/22/3 23/20/3
f 6/16/2 8/17/2 20/19/2
f 7/18/2 5/4/2 18/6/2
f 8/17/2 7/18/2 17/21/2
f 24/22/3 28/28/3 27/23/3
f 18/6/4 22/25/4 21/24/4
f 17/21/5 21/24/5 24/22/5
f 19/5/2 23/20/2 22/25/2
f 27/23/6 28/28/6 25/26/6
f 22/25/4 26/27/4 25/26/4
f 21/24/5 25/26/5 28/28/5
f 23/20/2 27/23/2 26/27/2
